<svg width="222" height="222" viewBox="0 0 222 222" fill="none" xmlns="http://www.w3.org/2000/svg">
<g filter="url(#filter0_d_543_11534)">
<circle cx="110.938" cy="96.9383" r="86.9383" fill="white"/>
</g>
<path fill-rule="evenodd" clip-rule="evenodd" d="M145.167 56H76.8334C73.0612 56.0045 70.0045 59.0612 70 62.8334V131.167C70.0045 134.939 73.0612 137.996 76.8334 138H145.167C148.939 137.996 151.996 134.939 152 131.167V62.8334C151.996 59.0612 148.939 56.0045 145.167 56ZM72.7334 64.2H105.533C106.288 64.2 106.9 64.812 106.9 65.5666V68.3C106.9 70.5643 108.736 72.4 111 72.4H149.267V75.1334H72.7334V64.2ZM76.8334 58.7334H145.167C147.431 58.7334 149.267 60.5691 149.267 62.8334V69.6668H111C110.245 69.6668 109.633 69.055 109.633 68.3002V65.5666C109.633 63.3023 107.798 61.4666 105.533 61.4666H72.9848C73.5619 59.8345 75.1021 58.7404 76.8334 58.7334ZM76.8334 135.267C74.5691 135.267 72.7334 133.431 72.7334 131.167V77.8666H149.267V131.167C149.267 133.431 147.431 135.267 145.167 135.267H76.8334ZM93.2334 68.3H78.2C77.4452 68.3 76.8334 68.912 76.8334 69.6666C76.8334 70.4213 77.4453 71.0332 78.2 71.0332H93.2334C93.9882 71.0332 94.6 70.4213 94.6 69.6666C94.6 68.912 93.988 68.3 93.2334 68.3ZM101.834 67.3338C102.367 66.8003 103.233 66.8003 103.766 67.3338C104.3 67.8674 104.3 68.7326 103.766 69.2662L103.366 69.6666L103.766 70.067C104.284 70.6032 104.277 71.4556 103.75 71.9828C103.222 72.51 102.37 72.5174 101.834 71.9994L101.433 71.5991L101.033 71.9994C100.69 72.3547 100.182 72.4972 99.7039 72.3721C99.2261 72.247 98.8529 71.874 98.7279 71.3961C98.6028 70.9182 98.7453 70.4102 99.1006 70.067L99.5009 69.6666L99.1006 69.2662C98.5826 68.73 98.59 67.8777 99.1172 67.3504C99.6443 66.8232 100.497 66.8158 101.033 67.3338L101.433 67.7342L101.834 67.3338ZM142.433 65.5666C143.188 65.5666 143.8 64.9548 143.8 64.2C143.8 63.4452 143.188 62.8334 142.433 62.8334C141.679 62.8334 141.067 63.4452 141.067 64.2C141.067 64.9548 141.679 65.5666 142.433 65.5666ZM138.333 64.2C138.333 64.9548 137.721 65.5666 136.967 65.5666C136.212 65.5666 135.6 64.9548 135.6 64.2C135.6 63.4452 136.212 62.8334 136.967 62.8334C137.721 62.8334 138.333 63.4452 138.333 64.2ZM131.5 65.5666C132.255 65.5666 132.867 64.9548 132.867 64.2C132.867 63.4452 132.255 62.8334 131.5 62.8334C130.745 62.8334 130.133 63.4452 130.133 64.2C130.133 64.9548 130.745 65.5666 131.5 65.5666ZM103.75 95.2162C103.222 95.7434 102.37 95.7508 101.834 95.2328L96.3672 89.7662C95.8337 89.2326 95.8337 88.3674 96.3672 87.8338L101.834 82.3672C102.37 81.8492 103.222 81.8566 103.75 82.3838C104.277 82.9109 104.284 83.7634 103.766 84.2996L99.2658 88.8L103.766 93.3004C104.284 93.8366 104.277 94.6889 103.75 95.2162ZM118.234 95.2328C118.767 95.7663 119.633 95.7663 120.166 95.2328L125.633 89.7662C126.166 89.2326 126.166 88.3674 125.633 87.8338L120.166 82.3672C119.63 81.8492 118.778 81.8566 118.25 82.3838C117.723 82.9111 117.716 83.7634 118.234 84.2996L122.734 88.8L118.234 93.3004C117.7 93.8342 117.7 94.6992 118.234 95.2328ZM108.7 95.5706C108.356 95.6854 107.98 95.6589 107.656 95.4966C107.331 95.3347 107.084 95.0506 106.97 94.7064C106.855 94.3624 106.881 93.9868 107.044 93.6625L112.51 82.7291C112.848 82.0536 113.669 81.7794 114.344 82.1168C115.02 82.4543 115.294 83.2754 114.957 83.9509L109.49 94.8843C109.328 95.209 109.044 95.4558 108.7 95.5706ZM83.6666 101.1H82.3C81.5452 101.1 80.9334 101.712 80.9334 102.467C80.9334 103.221 81.5453 103.833 82.3 103.833H83.6666C84.4214 103.833 85.0332 103.221 85.0332 102.467C85.0334 101.712 84.4214 101.1 83.6666 101.1ZM82.3 106.567H83.6666C84.4214 106.567 85.0332 107.178 85.0332 107.933C85.0332 108.688 84.4214 109.3 83.6666 109.3H82.3C81.5453 109.3 80.9334 108.688 80.9334 107.933C80.9334 107.179 81.5452 106.567 82.3 106.567ZM83.6666 112.033H82.3C81.5452 112.033 80.9334 112.645 80.9334 113.4C80.9334 114.155 81.5453 114.767 82.3 114.767H83.6666C84.4214 114.767 85.0332 114.155 85.0332 113.4C85.0332 112.645 84.4214 112.033 83.6666 112.033ZM82.3 117.5H83.6666C84.4214 117.5 85.0332 118.112 85.0332 118.867C85.0332 119.621 84.4214 120.233 83.6666 120.233H82.3C81.5453 120.233 80.9334 119.621 80.9334 118.867C80.9334 118.112 81.5452 117.5 82.3 117.5ZM83.6666 122.967H82.3C81.5452 122.967 80.9334 123.578 80.9334 124.333C80.9334 125.088 81.5453 125.7 82.3 125.7H83.6666C84.4214 125.7 85.0332 125.088 85.0332 124.333C85.0332 123.578 84.4214 122.967 83.6666 122.967ZM82.3 128.433H83.6666C84.4214 128.433 85.0332 129.045 85.0332 129.8C85.0332 130.555 84.4214 131.167 83.6666 131.167H82.3C81.5453 131.167 80.9334 130.555 80.9334 129.8C80.9334 129.045 81.5452 128.433 82.3 128.433ZM89.1334 103.833H113.733C114.488 103.833 115.1 103.221 115.1 102.467C115.1 101.712 114.488 101.1 113.733 101.1H89.1334C88.3786 101.1 87.7668 101.712 87.7668 102.467C87.7666 103.221 88.3786 103.833 89.1334 103.833ZM113.733 120.233H89.1334C88.3786 120.233 87.7668 119.621 87.7668 118.867C87.7668 118.112 88.3786 117.5 89.1334 117.5H113.733C114.488 117.5 115.1 118.112 115.1 118.867C115.1 119.622 114.488 120.233 113.733 120.233ZM134.233 117.5H119.2C118.445 117.5 117.833 118.112 117.833 118.867C117.833 119.621 118.445 120.233 119.2 120.233H134.233C134.988 120.233 135.6 119.621 135.6 118.867C135.6 118.112 134.988 117.5 134.233 117.5ZM89.1334 128.433H109.633C110.388 128.433 111 129.045 111 129.8C111 130.555 110.388 131.167 109.633 131.167H89.1334C88.3787 131.167 87.7668 130.555 87.7668 129.8C87.7668 129.045 88.3786 128.433 89.1334 128.433ZM127.4 128.433H115.1C114.345 128.433 113.733 129.045 113.733 129.8C113.733 130.555 114.345 131.167 115.1 131.167H127.4C128.155 131.167 128.767 130.555 128.767 129.8C128.767 129.045 128.155 128.433 127.4 128.433ZM109.633 114.767H89.1334C88.3786 114.767 87.7668 114.155 87.7668 113.4C87.7668 112.645 88.3786 112.033 89.1334 112.033H109.633C110.388 112.033 111 112.645 111 113.4C111 114.155 110.388 114.767 109.633 114.767ZM89.1334 109.3H101.433C102.188 109.3 102.8 108.688 102.8 107.933C102.8 107.179 102.188 106.567 101.433 106.567H89.1334C88.3786 106.567 87.7668 107.179 87.7668 107.933C87.7668 108.688 88.3786 109.3 89.1334 109.3ZM119.2 106.567C119.955 106.567 120.567 107.179 120.567 107.933C120.567 108.688 119.955 109.3 119.2 109.3H106.9C106.145 109.3 105.533 108.688 105.533 107.933C105.533 107.179 106.145 106.567 106.9 106.567H119.2ZM89.1334 125.7H108.267C109.022 125.7 109.633 125.088 109.633 124.333C109.633 123.579 109.021 122.967 108.267 122.967H89.1334C88.3786 122.967 87.7668 123.579 87.7668 124.333C87.7668 125.088 88.3786 125.7 89.1334 125.7ZM120.567 124.333C120.567 125.088 119.955 125.7 119.2 125.7H113.733C112.979 125.7 112.367 125.088 112.367 124.333C112.367 123.579 112.979 122.967 113.733 122.967H119.2C119.955 122.967 120.567 123.579 120.567 124.333ZM115.1 114.767H123.3C124.055 114.767 124.667 114.155 124.667 113.4C124.667 112.645 124.055 112.033 123.3 112.033H115.1C114.345 112.033 113.733 112.645 113.733 113.4C113.733 114.155 114.345 114.767 115.1 114.767ZM124.667 106.567H134.233C134.988 106.567 135.6 107.178 135.6 107.933C135.6 108.688 134.988 109.3 134.233 109.3H124.667C123.912 109.3 123.3 108.688 123.3 107.933C123.3 107.179 123.912 106.567 124.667 106.567Z" fill="#F84263"/>
<defs>
<filter id="filter0_d_543_11534" x="0" y="0" width="221.875" height="221.876" filterUnits="userSpaceOnUse" color-interpolation-filters="sRGB">
<feFlood flood-opacity="0" result="BackgroundImageFix"/>
<feColorMatrix in="SourceAlpha" type="matrix" values="0 0 0 0 0 0 0 0 0 0 0 0 0 0 0 0 0 0 127 0" result="hardAlpha"/>
<feOffset dy="14"/>
<feGaussianBlur stdDeviation="12"/>
<feComposite in2="hardAlpha" operator="out"/>
<feColorMatrix type="matrix" values="0 0 0 0 0.8125 0 0 0 0 0.788802 0 0 0 0 0.788802 0 0 0 0.25 0"/>
<feBlend mode="normal" in2="BackgroundImageFix" result="effect1_dropShadow_543_11534"/>
<feBlend mode="normal" in="SourceGraphic" in2="effect1_dropShadow_543_11534" result="shape"/>
</filter>
</defs>
</svg>
